REM MD5 b500f83259b2223ac03182b36c4c47c6
FILE "Great Rugby Jikkyou '98 - World Cup e no Michi (Japan).bin" BINARY
  TRACK 01 MODE2/2352
    INDEX 01 00:00:00
  TRACK 02 AUDIO
    INDEX 00 17:39:09
    INDEX 01 17:41:09
  TRACK 03 AUDIO
    INDEX 00 21:41:10
    INDEX 01 21:43:10
  TRACK 04 AUDIO
    INDEX 00 23:23:33
    INDEX 01 23:25:33
REM LEADOUT 26:28:23
